# xmcd CD database file
#
# Track frame offsets:
#	150
#	21398
#	33610
#	51676
#	64284
#	75131
#	89769
#	109978
#	123810
#	142967
#	155063
#	168161
#	182489
#	219457
#
# Disc length: 3117 seconds
#
# Revision: 0
# Processed by: cddbd v1.5.1PL0 Copyright (c) Steve Scherf et al.
# Submitted via: CDex 1.51
#
DISCID=c40c2b0e
DTITLE=The Beatles  - The White Album Disc 2
DYEAR=1990
DGENRE=Rock
TTITLE0=Birthday
TTITLE1=Yer Blues
TTITLE2=Mother Nature's Son
TTITLE3=Everybody's Got Something To Hide Except Me And My Monkey
TTITLE4=Sexy Sadie
TTITLE5=Helter Skelter
TTITLE6=Long, Long, Long
TTITLE7=Revolution 1
TTITLE8=Honey Pie
TTITLE9=Savoy Truffle
TTITLE10=Cry Baby Cry
TTITLE11=Revolution 9
TTITLE12=Good Night
TTITLE13=+alpha
EXTD=YEAR: 1990
EXTT0=
EXTT1=
EXTT2=
EXTT3=
EXTT4=
EXTT5=
EXTT6=
EXTT7=
EXTT8=
EXTT9=
EXTT10=
EXTT11=
EXTT12=
EXTT13=
PLAYORDER=
